<?xml version="1.0" encoding="utf-8"?>
<!-- Generator: Adobe Illustrator 26.0.1, SVG Export Plug-In . SVG Version: 6.00 Build 0)  -->
<svg version="1.1"
	 id="svg4" xmlns:inkscape="http://www.inkscape.org/namespaces/inkscape" xmlns:sodipodi="http://sodipodi.sourceforge.net/DTD/sodipodi-0.dtd" xmlns:svg="http://www.w3.org/2000/svg"
	 xmlns="http://www.w3.org/2000/svg" xmlns:xlink="http://www.w3.org/1999/xlink" x="0px" y="0px" viewBox="0 0 512 512"
	 style="enable-background:new 0 0 512 512;" xml:space="preserve">
<style type="text/css">
	.st0{fill:#1E1E1E;}
	.st1{fill:#FA8021;}
</style>
<sodipodi:namedview  bordercolor="#000000" borderopacity="0.25" id="namedview6" inkscape:current-layer="svg4" inkscape:cx="145.04601" inkscape:cy="267.77725" inkscape:deskcolor="#d1d1d1" inkscape:pagecheckerboard="0" inkscape:pageopacity="0.0" inkscape:showpageshadow="2" inkscape:window-height="811" inkscape:window-maximized="1" inkscape:window-width="1536" inkscape:window-x="-8" inkscape:window-y="-8" inkscape:zoom="0.8066406" pagecolor="#ffffff" showgrid="false">
	</sodipodi:namedview>
<circle id="path343" class="st0" cx="256" cy="256" r="232.4"/>
<g>
	<path class="st1" d="M257.9,157.7c8.3,0,16.5,0,24.7,0c7.2,0,12.7,3.1,16.1,9.5c22.6,41.4,45.2,82.8,67.8,124.2
		c3.4,6.2,3.1,12.3-0.3,18.4c-7.6,13.6-15,27.4-22.5,41c-1,1.7-2,3.4-4.3,3.4s-3.3-1.6-4.3-3.3c-29.2-50.8-58.4-101.6-87.7-152.3
		c-6.4-11.1-12.8-22.2-19.2-33.4c-2.7-4.7-1-7.6,4.4-7.6C241.1,157.7,249.5,157.7,257.9,157.7z"/>
	<path class="st1" d="M211.9,296.3c21,0,42,0.1,63-0.1c2.9,0,4.6,1,6.1,3.5c8.9,15.7,17.8,31.4,26.7,47.1c2.6,4.6,1,7.5-4.3,7.5
		c-40,0-80,0-120,0c-7.3,0-12.7-3.1-16.3-9.5c-7.6-13.7-15.3-27.4-22.9-41.1c-2.6-4.7-1-7.4,4.3-7.4
		C169.8,296.3,190.9,296.3,211.9,296.3z"/>
	<path class="st1" d="M212.1,277.6c-16.7,0-33.5,0-50.1,0c-1.5,0-2.9,0-4.1-1c-1.9-1.5-2.1-3.6-0.4-6.3c5.9-9.7,11.9-19.5,17.8-29.3
		c10.8-17.6,21.6-35.3,32.2-52.9c3-4.9,6.1-4.9,9-0.1c16.6,27.2,33.3,54.5,49.9,81.7c0.8,1.2,1.6,2.4,1.5,3.9
		c-0.3,2.3-2.1,3.7-5.1,3.7c-12.1,0-24.2,0-36.3,0C221.7,277.6,216.9,277.6,212.1,277.6z"/>
</g>
</svg>
