<?xml version="1.0" encoding="UTF-8" standalone="no"?>
<svg
   width="36"
   height="36"
   viewBox="0 0 24 24"
   fill="none"
   stroke="currentColor"
   stroke-width="2"
   stroke-linecap="round"
   stroke-linejoin="round"
   class="feather feather-video"
   version="1.1"
   id="svg6"
   sodipodi:docname="video.svg"
   inkscape:version="1.2.1 (9c6d41e410, 2022-07-14)"
   xmlns:inkscape="http://www.inkscape.org/namespaces/inkscape"
   xmlns:sodipodi="http://sodipodi.sourceforge.net/DTD/sodipodi-0.dtd"
   xmlns="http://www.w3.org/2000/svg"
   xmlns:svg="http://www.w3.org/2000/svg">
  <defs
     id="defs10" />
  <sodipodi:namedview
     id="namedview8"
     pagecolor="#ffffff"
     bordercolor="#000000"
     borderopacity="0.25"
     inkscape:showpageshadow="2"
     inkscape:pageopacity="0.0"
     inkscape:pagecheckerboard="0"
     inkscape:deskcolor="#d1d1d1"
     showgrid="false"
     inkscape:zoom="16.224172"
     inkscape:cx="13.405923"
     inkscape:cy="16.21038"
     inkscape:window-width="1920"
     inkscape:window-height="1027"
     inkscape:window-x="1912"
     inkscape:window-y="-8"
     inkscape:window-maximized="1"
     inkscape:current-layer="svg6" />
  <path
     d="M 11.277777,8.7138891 V 8.039815 Q 10.242593,7.7750002 9.556481,6.9326003 8.8703699,6.0902244 8.8703699,4.9824078 q 0,-1.2965574 0.917247,-2.2131054 0.9172461,-0.916524 2.2148151,-0.916524 1.297568,0 2.212382,0.916524 0.914815,0.916548 0.914815,2.2131054 0,1.1078166 -0.68611,1.9501925 -0.686112,0.8423999 -1.721297,1.1072147 v 0.6740741 l 7.222222,4.1648159 q 0.343055,0.196708 0.532639,0.527558 0.189584,0.33085 0.189584,0.724293 v 2.407407 q 0,0.393442 -0.189584,0.724293 -0.189584,0.33085 -0.532639,0.527559 l -7.222222,4.164814 q -0.344933,0.192593 -0.72617,0.192593 -0.381236,0 -0.718275,-0.192593 L 4.0555554,17.789815 Q 3.7124999,17.593106 3.5229166,17.262256 3.3333332,16.931405 3.3333332,16.537963 v -2.407407 q 0,-0.393443 0.1895834,-0.724293 0.1895833,-0.33085 0.5326388,-0.527558 z m 0,9.5574069 -6.4999994,-3.731482 v 1.998149 L 12,20.702777 19.222222,16.537963 v -2.022222 l -6.5,3.755555 q -0.344933,0.192592 -0.72617,0.192592 -0.381236,0 -0.718275,-0.192592 z m 0,-4.381481 V 10.375001 L 5.8611109,13.504629 12,17.043518 18.114815,13.480557 12.722222,10.375001 v 3.514814 z m 0.719382,-7.2222221 q 0.70099,0 1.194508,-0.4906778 0.493518,-0.4907018 0.493518,-1.1916666 0,-0.7009888 -0.490678,-1.1945073 -0.490701,-0.4935185 -1.191666,-0.4935185 -0.700989,0 -1.194508,0.4906779 -0.493519,0.4907017 -0.493519,1.1916665 0,0.7009888 0.490678,1.1945074 0.490702,0.4935184 1.191667,0.4935184 z m 0.0027,14.0351841 z"
     id="path410"
     style="fill:#fa8021;fill-opacity:1;stroke:none;stroke-width:0.0481482" />
</svg>
