<?xml version="1.0" encoding="UTF-8" standalone="no"?>
<svg
   viewBox="0 0 512 512"
   version="1.1"
   id="svg4"
   sodipodi:docname="up-right-from-square-solid.svg"
   inkscape:version="1.2.1 (9c6d41e410, 2022-07-14)"
   xmlns:inkscape="http://www.inkscape.org/namespaces/inkscape"
   xmlns:sodipodi="http://sodipodi.sourceforge.net/DTD/sodipodi-0.dtd"
   xmlns="http://www.w3.org/2000/svg"
   xmlns:svg="http://www.w3.org/2000/svg">
  <defs
     id="defs8" />
  <sodipodi:namedview
     id="namedview6"
     pagecolor="#ffffff"
     bordercolor="#000000"
     borderopacity="0.25"
     inkscape:showpageshadow="2"
     inkscape:pageopacity="0.0"
     inkscape:pagecheckerboard="0"
     inkscape:deskcolor="#d1d1d1"
     showgrid="false"
     inkscape:zoom="0.8066406"
     inkscape:cx="81.200971"
     inkscape:cy="239.88378"
     inkscape:window-width="1920"
     inkscape:window-height="1013"
     inkscape:window-x="-9"
     inkscape:window-y="-9"
     inkscape:window-maximized="1"
     inkscape:current-layer="svg4" />
  <circle
     style="fill:#1e1e1e;fill-opacity:1;stroke-width:1.02464"
     id="path343"
     cx="256"
     cy="256"
     r="232.44553" />
  <!--! Font Awesome Pro 6.2.1 by @fontawesome - https://fontawesome.com License - https://fontawesome.com/license (Commercial License) Copyright 2022 Fonticons, Inc. -->
  <path
     d="m 293.66052,155.51962 c -5.06327,0 -9.65554,3.06152 -11.61805,7.77153 -1.9625,4.71002 -0.8635,10.08729 2.70826,13.6983 l 16.24956,16.21032 -66.45049,66.48974 c -4.90627,4.90627 -4.90627,12.87405 0,17.78032 4.90626,4.90627 12.87404,4.90627 17.78031,0 l 66.4505,-66.48975 16.24956,16.24956 c 3.61101,3.61102 8.98828,4.67077 13.6983,2.70826 4.71002,-1.9625 7.77153,-6.51552 7.77153,-11.61804 v -50.24019 c 0,-6.94727 -5.61277,-12.56005 -12.56005,-12.56005 z m -106.7604,12.56005 c -17.34857,0 -31.40012,14.05155 -31.40012,31.40012 v 125.60046 c 0,17.34857 14.05155,31.40012 31.40012,31.40012 h 125.60047 c 17.34856,0 31.40011,-14.05154 31.40011,-31.40012 v -43.96016 c 0,-6.94727 -5.61277,-12.56004 -12.56004,-12.56004 -6.94728,0 -12.56005,5.61277 -12.56005,12.56004 v 43.96016 c 0,3.45402 -2.82601,6.28003 -6.28002,6.28003 H 186.90012 c -3.45402,0 -6.28003,-2.82601 -6.28003,-6.28003 V 199.47979 c 0,-3.45401 2.82601,-6.28002 6.28003,-6.28002 h 43.96016 c 6.94728,0 12.56005,-5.61278 12.56005,-12.56005 0,-6.94728 -5.61277,-12.56005 -12.56005,-12.56005 z"
     id="path2"
     style="fill:#fa8021;fill-opacity:1;stroke-width:0.392501" />
</svg>
