<?xml version="1.0" encoding="UTF-8" standalone="no"?>
<svg
   viewBox="0 0 512 512"
   version="1.1"
   id="svg4"
   sodipodi:docname="linkedin-in.svg"
   inkscape:version="1.2.1 (9c6d41e410, 2022-07-14)"
   xmlns:inkscape="http://www.inkscape.org/namespaces/inkscape"
   xmlns:sodipodi="http://sodipodi.sourceforge.net/DTD/sodipodi-0.dtd"
   xmlns="http://www.w3.org/2000/svg"
   xmlns:svg="http://www.w3.org/2000/svg">
  <defs
     id="defs8" />
  <sodipodi:namedview
     id="namedview6"
     pagecolor="#ffffff"
     bordercolor="#000000"
     borderopacity="0.25"
     inkscape:showpageshadow="2"
     inkscape:pageopacity="0.0"
     inkscape:pagecheckerboard="0"
     inkscape:deskcolor="#d1d1d1"
     showgrid="false"
     inkscape:zoom="0.8066406"
     inkscape:cx="122.11138"
     inkscape:cy="239.88378"
     inkscape:window-width="1920"
     inkscape:window-height="1013"
     inkscape:window-x="-9"
     inkscape:window-y="-9"
     inkscape:window-maximized="1"
     inkscape:current-layer="svg4" />
  <circle
     style="fill:#1e1e1e;fill-opacity:1;stroke-width:1.02464"
     id="path343"
     cx="256"
     cy="256"
     r="232.44553" />
  <!--! Font Awesome Pro 6.2.1 by @fontawesome - https://fontawesome.com License - https://fontawesome.com/license (Commercial License) Copyright 2022 Fonticons, Inc. -->
  <path
     d="M 204.21083,352.77515 H 162.53922 V 218.58074 h 41.67161 z M 183.35259,200.27538 c -13.32522,0 -24.13346,-11.03705 -24.13346,-24.36228 a 24.133461,24.133461 0 0 1 48.26692,0 c 0,13.32523 -10.81272,24.36228 -24.13346,24.36228 z m 176.82167,152.49977 h -41.58187 v -65.32499 c 0,-15.56853 -0.31406,-35.53393 -21.66583,-35.53393 -21.66582,0 -24.98591,16.91451 -24.98591,34.41228 v 66.44664 H 230.31391 V 218.58074 h 39.96669 v 18.30536 h 0.58326 c 5.5634,-10.54353 19.15333,-21.67032 39.42831,-21.67032 42.1741,0 49.92696,27.7721 49.92696,63.84442 v 73.71495 z"
     id="path2-6"
     style="fill:#fa8021;fill-opacity:1;stroke-width:0.448661" />
</svg>
