<?xml version="1.0" encoding="UTF-8" standalone="no"?>
<svg
   viewBox="0 0 512 512"
   version="1.1"
   id="svg4"
   sodipodi:docname="mail.svg"
   inkscape:version="1.2.1 (9c6d41e410, 2022-07-14)"
   xmlns:inkscape="http://www.inkscape.org/namespaces/inkscape"
   xmlns:sodipodi="http://sodipodi.sourceforge.net/DTD/sodipodi-0.dtd"
   xmlns="http://www.w3.org/2000/svg"
   xmlns:svg="http://www.w3.org/2000/svg">
  <defs
     id="defs8" />
  <sodipodi:namedview
     id="namedview6"
     pagecolor="#ffffff"
     bordercolor="#000000"
     borderopacity="0.25"
     inkscape:showpageshadow="2"
     inkscape:pageopacity="0.0"
     inkscape:pagecheckerboard="0"
     inkscape:deskcolor="#d1d1d1"
     showgrid="false"
     inkscape:zoom="1.1407621"
     inkscape:cx="41.638831"
     inkscape:cy="238.8754"
     inkscape:window-width="1920"
     inkscape:window-height="1013"
     inkscape:window-x="-9"
     inkscape:window-y="-9"
     inkscape:window-maximized="1"
     inkscape:current-layer="svg4" />
  <circle
     style="fill:#1e1e1e;fill-opacity:1;stroke-width:1.02464"
     id="path343"
     cx="256"
     cy="256"
     r="232.44553" />
  <!--! Font Awesome Pro 6.2.1 by @fontawesome - https://fontawesome.com License - https://fontawesome.com/license (Commercial License) Copyright 2022 Fonticons, Inc. -->
  <path
     d="m 256,180.625 c -41.61328,0 -75.375,33.76172 -75.375,75.375 0,41.61328 33.76172,75.375 75.375,75.375 6.94863,0 12.5625,5.61387 12.5625,12.5625 0,6.94863 -5.61387,12.5625 -12.5625,12.5625 -55.51055,0 -100.5,-44.98945 -100.5,-100.5 0,-55.51055 44.98945,-100.5 100.5,-100.5 55.51055,0 100.5,44.98945 100.5,100.5 v 12.5625 c 0,20.80664 -16.88086,37.6875 -37.6875,37.6875 -11.50254,0 -21.82734,-5.18203 -28.73672,-13.3084 C 281.125,301.18574 269.15137,306.25 256,306.25 c -27.75527,0 -50.25,-22.49473 -50.25,-50.25 0,-27.75527 22.49473,-50.25 50.25,-50.25 10.95293,0 21.08145,3.49395 29.32559,9.46113 2.23769,-1.96289 5.14277,-3.17988 8.36191,-3.17988 6.94863,0 12.5625,5.61387 12.5625,12.5625 V 256 268.5625 c 0,6.94863 5.61387,12.5625 12.5625,12.5625 6.94863,0 12.5625,-5.61387 12.5625,-12.5625 V 256 c 0,-41.61328 -33.76172,-75.375 -75.375,-75.375 z M 281.125,256 c 0,-13.85801 -11.26699,-25.125 -25.125,-25.125 -13.85801,0 -25.125,11.26699 -25.125,25.125 0,13.85801 11.26699,25.125 25.125,25.125 13.85801,0 25.125,-11.26699 25.125,-25.125 z"
     id="path6747"
     style="fill:#fa8021;fill-opacity:1;stroke-width:0.392578" />
</svg>
