<?xml version="1.0" encoding="UTF-8" standalone="no"?>
<svg
   width="36"
   height="36"
   viewBox="0 0 24 24"
   fill="none"
   stroke="currentColor"
   stroke-width="2"
   stroke-linecap="round"
   stroke-linejoin="round"
   class="feather feather-box"
   version="1.1"
   id="svg8"
   sodipodi:docname="box.svg"
   inkscape:version="1.2.1 (9c6d41e410, 2022-07-14)"
   xmlns:inkscape="http://www.inkscape.org/namespaces/inkscape"
   xmlns:sodipodi="http://sodipodi.sourceforge.net/DTD/sodipodi-0.dtd"
   xmlns="http://www.w3.org/2000/svg"
   xmlns:svg="http://www.w3.org/2000/svg">
  <defs
     id="defs12" />
  <sodipodi:namedview
     id="namedview10"
     pagecolor="#ffffff"
     bordercolor="#000000"
     borderopacity="0.25"
     inkscape:showpageshadow="2"
     inkscape:pageopacity="0.0"
     inkscape:pagecheckerboard="0"
     inkscape:deskcolor="#d1d1d1"
     showgrid="false"
     inkscape:zoom="11.472222"
     inkscape:cx="12.246974"
     inkscape:cy="12.116223"
     inkscape:window-width="1920"
     inkscape:window-height="1027"
     inkscape:window-x="1912"
     inkscape:window-y="-8"
     inkscape:window-maximized="1"
     inkscape:current-layer="svg8" />
  <path
     d="m 11.999999,20.666667 q -1.776667,0 -3.3583326,-0.6825 Q 7.0600002,19.301667 5.8791672,18.120834 4.6983336,16.94 4.0158335,15.358334 3.3333335,13.776668 3.3333335,12 q 0,-1.841667 0.6933336,-3.4233333 0.6933336,-1.5816669 1.895833,-2.7516668 1.2025,-1.1700001 2.8166669,-1.8308332 1.614165,-0.6608334 3.455832,-0.6608334 1.711668,0 3.250001,0.5741666 1.538333,0.5741667 2.697499,1.5924999 1.159169,1.0183335 1.841668,2.4158335 0.6825,1.3975001 0.6825,3.0658337 0,2.34 -1.364999,3.694167 Q 17.936668,16.03 15.683334,16.03 h -1.625001 q -0.39,0 -0.671665,0.303335 -0.281669,0.303332 -0.281669,0.671665 0,0.585 0.314168,0.996667 0.314168,0.411666 0.314168,0.953333 0,0.823334 -0.455001,1.267499 -0.455001,0.444168 -1.278335,0.444168 z m 0,-8.666667 z m -5.0483316,0.563333 q 0.4333328,0 0.7583329,-0.325 0.3249998,-0.324999 0.3249998,-0.758334 0,-0.433332 -0.3249998,-0.758333 -0.3250001,-0.325 -0.7583329,-0.325 -0.4333337,0 -0.7583337,0.325 -0.325,0.325001 -0.325,0.758333 0,0.433335 0.325,0.758334 0.325,0.325 0.7583337,0.325 z M 9.6816671,8.8799999 q 0.4333329,0 0.7583329,-0.325 Q 10.765,8.23 10.765,7.7966667 q 0,-0.4333334 -0.325,-0.7583335 -0.325,-0.325 -0.7583329,-0.325 -0.4333345,0 -0.758333,0.325 -0.3250005,0.3250001 -0.3250005,0.7583335 0,0.4333333 0.3250005,0.7583332 0.3249985,0.325 0.758333,0.325 z m 4.6366659,0 q 0.433334,0 0.758334,-0.325 0.325,-0.3249999 0.325,-0.7583332 0,-0.4333334 -0.325,-0.7583335 -0.325,-0.325 -0.758334,-0.325 -0.433334,0 -0.758332,0.325 -0.325002,0.3250001 -0.325002,0.7583335 0,0.4333333 0.325002,0.7583332 0.324998,0.325 0.758332,0.325 z m 2.838334,3.6833331 q 0.433334,0 0.758332,-0.325 0.325002,-0.324999 0.325002,-0.758334 0,-0.433332 -0.325002,-0.758333 -0.324998,-0.325 -0.758332,-0.325 -0.433334,0 -0.758334,0.325 -0.325,0.325001 -0.325,0.758333 0,0.433335 0.325,0.758334 0.325,0.325 0.758334,0.325 z m -5.156668,6.803335 q 0.238334,0 0.335834,-0.0975 0.0975,-0.0975 0.0975,-0.314168 0,-0.303333 -0.314166,-0.563333 -0.314168,-0.26 -0.314168,-1.148334 0,-0.996666 0.65,-1.754998 0.65,-0.758336 1.646667,-0.758336 h 1.581668 q 1.646667,0 2.665,-0.964165 1.018334,-0.964167 1.018334,-2.784167 0,-2.8600004 -2.166668,-4.6041671 -2.166666,-1.7441667 -5.005001,-1.7441667 -3.1633318,0 -5.3624988,2.1341666 Q 4.6333336,8.9016666 4.6333336,12 q 0,3.055001 2.1558338,5.210833 2.1558325,2.155835 5.2108316,2.155835 z"
     id="path1602"
     style="fill:#fa8021;fill-opacity:1;stroke:none;stroke-width:0.0433334" />
</svg>
